HIERARCHY
ROOT Hips
{
	OFFSET 0.00000 0.00000 0.00000
	CHANNELS 6 Xposition Yposition Zposition Yrotation Zrotation Xrotation 
	JOINT Lumbar
	{
		OFFSET 0 0 0
		CHANNELS 3 Zrotation Xrotation Yrotation
		JOINT Neck
		{
			OFFSET 0.00 0.2701 0.00
			CHANNELS 3 Zrotation Xrotation Yrotation
			End Site
			{
				OFFSET 0.00 0.1379 0.00
			}
		}
		JOINT RightShoulder
		{
			OFFSET 0.0119 0.2289 0.1181
			CHANNELS 3 Zrotation Xrotation Yrotation
			JOINT RightElbow
			{
				OFFSET 0.00 -0.1475 0.00
				CHANNELS 2 Zrotation Yrotation
				JOINT RightWrist
				{
					OFFSET 0.00 -0.1605 0.00
					CHANNELS 2 Zrotation Xrotation
					End Site
					{
						OFFSET 0.0040 -0.1068 0.0006
					}
				}
			}
		}
		JOINT LeftShoulder
		{
			OFFSET 0.0119 0.2289 -0.1181
			CHANNELS 3 Zrotation Xrotation Yrotation
			JOINT LeftElbow
			{
				OFFSET 0.00 -0.1475 0.00
				CHANNELS 2 Zrotation Yrotation
				JOINT LeftWrist
				{
					OFFSET 0.00 -0.1605 0.00
					CHANNELS 2 Zrotation Xrotation
					End Site
					{
						OFFSET 0.0040 -0.1068 -0.0006
					}
				}
			}
		}
	}
	JOINT RightHip
	{
		OFFSET 0.0316 -0.0424 0.0458
		CHANNELS 3 Zrotation Xrotation Yrotation
		JOINT RightKnee
		{
			OFFSET 0.00 -0.2438 0.00
			CHANNELS 1 Zrotation
			JOINT RightAnkle
			{
				OFFSET 0.00 -0.2449 0.00
				CHANNELS 3 Zrotation Xrotation Yrotation
				End Site
				{
					OFFSET 0.1237 -0.0542 0.0051
				}
			}
		}
	}
	JOINT LeftHip
	{
		OFFSET 0.0316 -0.0424 -0.0458
		CHANNELS 3 Zrotation Xrotation Yrotation
		JOINT LeftKnee
		{
			OFFSET 0.00 -0.2438 0.00
			CHANNELS 1 Zrotation
			JOINT LeftAnkle
			{
				OFFSET 0.00 -0.2449 0.00
				CHANNELS 3 Zrotation Xrotation Yrotation
				End Site
				{
					OFFSET 0.1237 -0.0542 -0.0051
				}
			}
		}
	}
}
MOTION
Frames: 32
Frame Time: 0.02
-0 0.57926 -0 185.85725 0 -3.02439 8.56157 3.61122 -3.56336 -22.29718 2.99251 -1.07222 16.99734 -11.39647 14.36294 8.9967 87.30262 2.66342 2.93633 18.5628 5.94225 -16.67842 8.14767 -79.48404 -1.81419 -0.67536 -6.54354 7.45896 7.59715 -4.05511 2.57488 -3.91977 -5.20981 -4.56042 0.27428 -14.09448 -5.7725 6.29929 5.37091 6.8925
0.00019 0.57928 8e-05 185.84389 0 -3.02865 8.54071 3.61278 -3.55402 -22.37609 2.99448 -1.06623 17.05785 -11.39853 14.38806 9.00066 87.38284 2.68492 2.93743 18.61292 5.95115 -16.69894 8.15343 -79.45891 -1.81616 -0.66469 -6.50328 7.4562 7.58695 -4.09726 2.57674 -3.93978 -5.19524 -4.57182 0.18141 -15.88517 -5.7758 6.08683 5.55823 8.7005
0.00037 0.5793 0.00015 185.83053 0 -3.03295 8.51989 3.61437 -3.54463 -22.45421 2.99654 -1.0601 17.11756 -11.40067 14.4131 9.00456 87.46274 2.70644 2.93868 18.6624 5.9597 -16.71943 8.15916 -79.43389 -1.81814 -0.65402 -6.46326 7.45356 7.57902 -4.13907 2.57829 -3.95976 -5.18288 -4.58297 0.08973 -17.65347 -5.779 5.87685 5.74351 10.48593
0.00056 0.57933 0.00023 185.81715 0 -3.03733 8.4991 3.61599 -3.53501 -22.53038 2.99901 -1.05338 17.17509 -11.40312 14.43848 9.00821 87.5423 2.72836 2.94085 18.71027 5.9668 -16.74049 8.16483 -79.40909 -1.82014 -0.64328 -6.42396 7.45092 7.57093 -4.17969 2.57943 -3.97914 -5.17019 -4.593 0.002 -19.34286 -5.78209 5.67552 5.92242 12.19208
0.00075 0.57935 0.00031 185.80402 0 -3.04109 8.47826 3.61731 -3.52673 -22.61746 2.99939 -1.04983 17.24473 -11.4039 14.4625 9.0131 87.62384 2.74829 2.9385 18.76724 5.98143 -16.7591 8.1708 -79.38312 -1.82194 -0.63298 -6.38099 7.4477 7.55287 -4.22631 2.58369 -4.0009 -5.14859 -4.60869 -0.10654 -21.44204 -5.78608 5.4293 6.13503 14.31021
0.00093 0.57937 0.00038 185.79028 0 -3.0463 8.45748 3.61937 -3.51552 -22.68098 3.00412 -1.03952 17.2883 -11.40821 14.48911 9.01541 87.70099 2.7723 2.9455 18.80454 5.98021 -16.78248 8.17614 -79.35965 -1.82423 -0.62171 -6.34573 7.4461 7.56326 -4.2604 2.58073 -4.01816 -5.15306 -4.61256 -0.17105 -22.67799 -5.78793 5.27765 6.27619 15.56029
0.00107 0.57938 0.00045 185.77533 0 -3.05476 8.43675 3.62259 -3.49633 -22.68153 3.02194 -1.00994 17.26096 -11.42301 14.52653 9.00993 87.76881 2.80966 2.98111 18.78903 5.93276 -16.82374 8.17976 -79.34297 -1.82749 -0.60757 -6.33238 7.44586 7.589 -4.25788 2.56255 -4.01817 -5.16727 -4.58138 -0.11031 -21.42833 -5.78544 5.39795 6.21615 14.31256
0.00121 0.5794 0.00052 185.75966 0 -3.06482 8.41603 3.62671 -3.47416 -22.6575 3.04402 -0.97357 17.20665 -11.44137 14.56615 9.00196 87.83182 2.85085 3.02571 18.75298 5.86969 -16.86918 8.18274 -79.32889 -1.83132 -0.59244 -6.32666 7.44773 7.65205 -4.24308 2.53643 -4.01434 -5.21621 -4.53871 -0.00566 -19.32397 -5.7804 5.61192 6.08458 12.20498
0.00135 0.57941 0.00059 185.74399 0 -3.07465 8.39544 3.63102 -3.45321 -22.64389 3.06336 -0.94072 17.1645 -11.4575 14.60214 8.99555 87.8952 2.88888 3.06437 18.72585 5.81538 -16.90944 8.18597 -79.31359 -1.83517 -0.57787 -6.31704 7.45082 7.74313 -4.23522 2.51054 -4.01563 -5.29374 -4.50277 0.07655 -17.67588 -5.77561 5.77618 5.9882 10.55542
0.00148 0.57943 0.00066 185.7297 0 -3.08243 8.37452 3.63285 -3.43271 -22.63517 3.08583 -0.90619 17.1245 -11.47574 14.64831 8.98732 87.96597 2.93264 3.11071 18.70213 5.7542 -16.96272 8.18932 -79.2982 -1.83788 -0.56288 -6.30932 7.44518 7.65695 -4.22168 2.49794 -4.00341 -5.19661 -4.46032 0.16901 -15.74379 -5.77504 5.97047 5.88065 8.62466
0.00162 0.57944 0.00073 185.7124 0 -3.09482 8.354 3.63998 -3.41068 -22.60827 3.10311 -0.87334 17.07143 -11.49104 14.67497 8.98233 88.02056 2.96569 3.14338 18.66436 5.70343 -16.9909 8.19234 -79.28396 -1.84306 -0.54849 -6.29935 7.45764 7.93302 -4.21701 2.45699 -4.01752 -5.45566 -4.42889 0.25084 -14.19735 -5.76458 6.12456 5.7792 7.07212
0.00177 0.57946 0.00079 185.68675 0 -3.11988 8.33688 3.66221 -3.38435 -22.55535 3.1024 -0.84861 17.00721 -11.49213 14.6372 8.98646 88.02884 2.96556 3.1346 18.61017 5.68671 -16.93936 8.19381 -79.26932 -1.85543 -0.5364 -6.28232 7.52452 9.33854 -4.2401 2.3291 -4.11281 -6.82822 -4.42883 0.28992 -13.94976 -5.73209 6.14415 5.71368 6.80221
0.00191 0.57948 0.00085 185.65818 0 -3.14945 8.31967 3.68961 -3.3568 -22.48143 3.09683 -0.82549 16.92716 -11.4912 14.58152 8.99398 88.02164 2.95503 3.11205 18.53907 5.68069 -16.86364 8.19508 -79.25628 -1.87022 -0.52485 -6.26262 7.60868 11.08335 -4.27245 2.1748 -4.23331 -8.53405 -4.44048 0.31724 -14.11533 -5.68908 6.12023 5.65654 6.93759
0.00206 0.5795 0.00091 185.63099 0 -3.17677 8.30109 3.71419 -3.33024 -22.40544 3.09516 -0.80037 16.84254 -11.49454 14.54073 9.00026 88.02323 2.95103 3.0968 18.4647 5.66881 -16.80577 8.19698 -79.24447 -1.88348 -0.51284 -6.24345 7.68159 12.57983 -4.30044 2.03973 -4.33734 -9.99406 -4.44813 0.35175 -14.07519 -5.64759 6.11658 5.59446 6.86883
0.00221 0.57952 0.00098 185.60332 0 -3.20508 8.28876 3.74081 -3.30143 -22.37835 3.08637 -0.78021 16.80738 -11.48354 14.47189 9.00531 88.0168 2.93956 3.07747 18.43695 5.66066 -16.72118 8.19668 -79.22456 -1.89836 -0.50185 -6.22726 7.76861 14.4675 -4.32885 1.87447 -4.46241 -11.84587 -4.45025 0.38019 -14.08018 -5.61895 6.1139 5.53441 6.85342
0.00235 0.57954 0.00101 185.57628 0 -3.23226 8.26305 3.76439 -3.27743 -22.24384 3.09137 -0.75037 16.66489 -11.50228 14.45672 9.01364 88.02403 2.94112 3.06325 18.30697 5.64739 -16.68381 8.20081 -79.22179 -1.9107 -0.48869 -6.20431 7.83068 15.62992 -4.3585 1.76515 -4.54968 -12.9701 -4.46625 0.41764 -14.10148 -5.56211 6.09787 5.47334 6.83546
0.00248 0.57957 0.00094 185.54894 0 -3.25609 8.20306 3.77824 -3.26367 -21.82562 3.13416 -0.69187 16.23749 -11.60013 14.59712 9.03118 88.06802 2.98109 3.06644 17.91027 5.61822 -16.80307 8.21785 -79.26643 -1.91348 -0.47112 -6.16168 7.81661 14.62461 -4.3915 1.82358 -4.52652 -11.91839 -4.52265 0.48484 -14.06185 -5.42105 6.05325 5.40537 6.70594
0.00261 0.57961 0.00083 185.52277 0 -3.27841 8.12902 3.78889 -3.25531 -21.29873 3.19123 -0.62389 15.70125 -11.7286 14.7909 9.05162 88.12717 3.03449 3.07525 17.40905 5.58343 -16.96519 8.23904 -79.32797 -1.91418 -0.45102 -6.11257 7.77737 12.89259 -4.42515 1.93802 -4.46453 -10.13836 -4.59175 0.56088 -14.02957 -5.25362 5.99663 5.33682 6.56529
0.00274 0.57965 0.00073 185.49797 0 -3.30084 8.05979 3.80099 -3.2468 -20.81658 3.24273 -0.56133 15.21008 -11.84533 14.95915 9.07027 88.18258 3.0818 3.08142 16.94851 5.55069 -17.0965 8.25819 -79.3817 -1.91689 -0.43097 -6.06754 7.75168 11.54721 -4.45708 2.02236 -4.42012 -8.74795 -4.65182 0.63136 -14.00148 -5.10418 5.94665 5.27022 6.43748
0.00287 0.57969 0.00065 185.46534 0 -3.32594 7.99759 3.81316 -3.22895 -20.35314 3.29028 -0.49417 14.73722 -11.95285 15.13496 9.09155 88.22432 3.12878 3.0873 16.51688 5.52045 -17.28175 8.2788 -79.43684 -1.91441 -0.41564 -6.01783 7.7178 9.97667 -4.4951 2.12524 -4.3765 -7.12307 -4.72599 0.70807 -13.95558 -4.92914 5.89035 5.19671 6.29002
0.00301 0.57972 0.00052 185.44895 0 -3.34495 7.91695 3.82452 -3.23131 -19.8254 3.34937 -0.43426 14.20017 -12.08682 15.30438 9.10735 88.29811 3.17966 3.09554 15.99952 5.48355 -17.35644 8.29633 -79.49201 -1.92319 -0.38984 -5.97611 7.69461 8.69684 -4.52076 2.20331 -4.32214 -5.8075 -4.77375 0.77395 -13.94308 -4.80111 5.8447 5.1374 6.17614
0.00319 0.57976 0.0003 185.48077 0 -3.34861 7.7927 3.83311 -3.29286 -19.14494 3.4379 -0.39738 13.51589 -12.28657 15.47316 9.11292 88.45854 3.23883 3.10696 15.27865 5.42947 -17.18927 8.31332 -79.55154 -1.9555 -0.33596 -5.96031 7.70835 8.40638 -4.50934 2.19776 -4.2434 -5.53749 -4.74462 0.8087 -14.02171 -4.81119 5.83333 5.11707 6.15315
0.00339 0.5798 4e-05 185.52835 0 -3.34597 7.64961 3.84126 -3.37368 -18.40403 3.53727 -0.36806 12.77007 -12.51177 15.62786 9.11182 88.65031 3.30128 3.12108 14.47355 5.36897 -16.89542 8.32541 -79.60858 -2.00085 -0.27155 -5.95247 7.7334 8.43002 -4.4858 2.16566 -4.15581 -5.59969 -4.68854 0.83212 -14.13162 -4.86926 5.83294 5.11106 6.16322
0.00359 0.57983 -0.00021 185.56621 0 -3.34551 7.51266 3.8504 -3.44261 -17.69196 3.63111 -0.33476 12.05049 -12.72529 15.76972 9.11008 88.8267 3.36186 3.13523 13.70239 5.31135 -16.61152 8.33383 -79.6617 -2.04537 -0.21191 -5.93941 7.75239 8.3026 -4.46979 2.14678 -4.07499 -5.49951 -4.64537 0.86021 -14.22471 -4.90411 5.82642 5.09872 6.15927
0.00377 0.57987 -0.00043 185.61444 0 -3.34796 7.38564 3.85593 -3.52501 -16.97 3.7284 -0.30315 11.33503 -12.9407 15.99581 9.12393 89.00884 3.42486 3.14394 12.94685 5.25327 -16.53113 8.36724 -79.73822 -2.06781 -0.15249 -5.93252 7.77443 8.1859 -4.44585 2.12507 -3.98143 -5.42252 -4.6 0.89069 -14.32913 -4.94372 5.82417 5.08572 6.15114
0.00399 0.5799 -0.00071 185.64541 0 -3.34276 7.23342 3.86912 -3.58379 -16.25609 3.82037 -0.27031 10.597 -13.15738 16.04097 9.10369 89.18573 3.48297 3.16493 12.13891 5.19522 -15.99498 8.34743 -79.76333 -2.13998 -0.08986 -5.91523 7.79306 8.12994 -4.43481 2.1021 -3.91252 -5.38526 -4.55245 0.9133 -14.41744 -4.9855 5.81592 5.07738 6.1594
0.00428 0.57995 -0.00112 185.61979 0 -3.3189 7.01808 3.90205 -3.57317 -15.57661 3.89925 -0.2291 9.8186 -13.37467 15.60104 8.99068 89.34519 3.53067 3.21596 11.21772 5.13462 -14.24196 8.18141 -79.66305 -2.34053 -0.02347 -5.86328 7.80013 8.17647 -4.46883 2.08312 -3.91661 -5.38259 -4.50712 0.91757 -14.45143 -5.01882 5.78741 5.0795 6.20675
0.00461 0.58 -0.00158 185.57726 0 -3.2874 6.77777 3.94305 -3.53798 -14.90849 3.97139 -0.18707 9.01875 -13.59135 14.9766 8.84353 89.49749 3.57261 3.27984 10.24512 5.07523 -12.03299 7.96211 -79.50827 -2.59144 0.04607 -5.80134 7.80339 8.27495 -4.51515 2.06336 -3.94553 -5.41114 -4.46014 0.91414 -14.46863 -5.05337 5.7527 5.08571 6.26926
0.00492 0.58005 -0.00202 185.54575 0 -3.2588 6.5477 3.98131 -3.51366 -14.23725 4.04391 -0.14745 8.22487 -13.80626 14.42979 8.71229 89.64973 3.61451 3.33989 9.28963 5.01791 -10.02485 7.76746 -79.36762 -2.82347 0.11599 -5.74665 7.80807 8.34542 -4.55149 2.04301 -3.96143 -5.42476 -4.41279 0.91376 -14.49458 -5.08922 5.72155 5.08919 6.32338
0.00524 0.5801 -0.00245 185.50053 0 -3.23238 6.32154 4.01546 -3.49128 -13.55462 4.12871 -0.09932 7.44517 -14.03166 13.91111 8.57954 89.81648 3.6675 3.39148 8.35795 4.94874 -8.03697 7.57064 -79.27092 -3.04033 0.17929 -5.68091 7.81436 8.44414 -4.60552 2.02565 -3.9842 -5.45177 -4.36929 0.91487 -14.51609 -5.11866 5.68771 5.09642 6.38435
0.00554 0.58014 -0.00291 185.47989 0 -3.19971 6.08168 4.06033 -3.45875 -12.89993 4.18548 -0.06881 6.63106 -14.23355 13.28727 8.44145 89.95164 3.69631 3.46381 7.36505 4.90534 -5.90312 7.36592 -79.0709 -3.29897 0.25618 -5.63556 7.81638 8.49341 -4.62631 2.00234 -3.99884 -5.45515 -4.31767 0.9112 -14.54347 -5.16138 5.65779 5.09718 6.43505
0.0058 0.58018 -0.00341 185.52928 0 -3.15146 5.80925 4.1306 -3.40442 -12.31433 4.17216 -0.08559 5.73276 -14.37996 12.44233 8.30104 89.99433 3.65648 3.58932 6.22084 4.92692 -3.45248 7.15139 -78.58804 -3.67454 0.37651 -5.6505 7.80626 8.38376 -4.54773 1.96204 -3.98364 -5.37584 -4.2445 0.89605 -14.58252 -5.23827 5.64078 5.07429 6.44642
